G04 EAGLE Gerber RS-274X export*
G75*
%MOMM*%
%FSLAX34Y34*%
%LPD*%
%INSilkscreen Top*%
%IPPOS*%
%AMOC8*
5,1,8,0,0,1.08239X$1,22.5*%
G01*
%ADD10C,0.152400*%
%ADD11C,0.076200*%
%ADD12C,0.200000*%
%ADD13C,0.101600*%
%ADD14C,0.203200*%


D10*
X280162Y83256D02*
X284678Y86868D01*
X284678Y70612D01*
X289193Y70612D02*
X280162Y70612D01*
X263793Y82804D02*
X263791Y82929D01*
X263785Y83054D01*
X263776Y83179D01*
X263762Y83303D01*
X263745Y83427D01*
X263724Y83551D01*
X263699Y83673D01*
X263670Y83795D01*
X263638Y83916D01*
X263602Y84036D01*
X263562Y84155D01*
X263519Y84272D01*
X263472Y84388D01*
X263421Y84503D01*
X263367Y84615D01*
X263309Y84727D01*
X263249Y84836D01*
X263184Y84943D01*
X263117Y85049D01*
X263046Y85152D01*
X262972Y85253D01*
X262895Y85352D01*
X262815Y85448D01*
X262732Y85542D01*
X262647Y85633D01*
X262558Y85722D01*
X262467Y85807D01*
X262373Y85890D01*
X262277Y85970D01*
X262178Y86047D01*
X262077Y86121D01*
X261974Y86192D01*
X261868Y86259D01*
X261761Y86324D01*
X261652Y86384D01*
X261540Y86442D01*
X261428Y86496D01*
X261313Y86547D01*
X261197Y86594D01*
X261080Y86637D01*
X260961Y86677D01*
X260841Y86713D01*
X260720Y86745D01*
X260598Y86774D01*
X260476Y86799D01*
X260352Y86820D01*
X260228Y86837D01*
X260104Y86851D01*
X259979Y86860D01*
X259854Y86866D01*
X259729Y86868D01*
X259586Y86866D01*
X259444Y86860D01*
X259301Y86850D01*
X259159Y86837D01*
X259018Y86819D01*
X258876Y86798D01*
X258736Y86773D01*
X258596Y86744D01*
X258457Y86711D01*
X258319Y86674D01*
X258182Y86634D01*
X258047Y86590D01*
X257912Y86542D01*
X257779Y86490D01*
X257647Y86435D01*
X257517Y86376D01*
X257389Y86314D01*
X257262Y86248D01*
X257137Y86179D01*
X257014Y86107D01*
X256894Y86031D01*
X256775Y85952D01*
X256658Y85869D01*
X256544Y85784D01*
X256432Y85695D01*
X256323Y85604D01*
X256216Y85509D01*
X256111Y85412D01*
X256010Y85311D01*
X255911Y85208D01*
X255815Y85103D01*
X255722Y84994D01*
X255632Y84883D01*
X255545Y84770D01*
X255461Y84655D01*
X255381Y84537D01*
X255303Y84417D01*
X255229Y84295D01*
X255159Y84171D01*
X255091Y84045D01*
X255028Y83917D01*
X254967Y83788D01*
X254910Y83657D01*
X254857Y83525D01*
X254808Y83391D01*
X254762Y83256D01*
X262438Y79643D02*
X262532Y79735D01*
X262622Y79829D01*
X262710Y79926D01*
X262795Y80026D01*
X262877Y80128D01*
X262956Y80233D01*
X263031Y80340D01*
X263103Y80449D01*
X263172Y80560D01*
X263238Y80674D01*
X263300Y80789D01*
X263359Y80906D01*
X263414Y81025D01*
X263465Y81145D01*
X263513Y81267D01*
X263558Y81390D01*
X263598Y81514D01*
X263635Y81640D01*
X263668Y81767D01*
X263697Y81894D01*
X263723Y82023D01*
X263744Y82152D01*
X263762Y82282D01*
X263775Y82412D01*
X263785Y82542D01*
X263791Y82673D01*
X263793Y82804D01*
X262438Y79643D02*
X254762Y70612D01*
X263793Y70612D01*
X233878Y70612D02*
X229362Y70612D01*
X233878Y70612D02*
X234011Y70614D01*
X234143Y70620D01*
X234275Y70630D01*
X234407Y70643D01*
X234539Y70661D01*
X234669Y70682D01*
X234800Y70707D01*
X234929Y70736D01*
X235057Y70769D01*
X235185Y70805D01*
X235311Y70845D01*
X235436Y70889D01*
X235560Y70937D01*
X235682Y70988D01*
X235803Y71043D01*
X235922Y71101D01*
X236040Y71163D01*
X236155Y71228D01*
X236269Y71297D01*
X236380Y71368D01*
X236489Y71444D01*
X236596Y71522D01*
X236701Y71603D01*
X236803Y71688D01*
X236903Y71775D01*
X237000Y71865D01*
X237095Y71958D01*
X237186Y72054D01*
X237275Y72152D01*
X237361Y72253D01*
X237444Y72357D01*
X237524Y72463D01*
X237600Y72571D01*
X237674Y72681D01*
X237744Y72794D01*
X237811Y72908D01*
X237874Y73025D01*
X237934Y73143D01*
X237991Y73263D01*
X238044Y73385D01*
X238093Y73508D01*
X238139Y73632D01*
X238181Y73758D01*
X238219Y73885D01*
X238254Y74013D01*
X238285Y74142D01*
X238312Y74271D01*
X238335Y74402D01*
X238355Y74533D01*
X238370Y74665D01*
X238382Y74797D01*
X238390Y74929D01*
X238394Y75062D01*
X238394Y75194D01*
X238390Y75327D01*
X238382Y75459D01*
X238370Y75591D01*
X238355Y75723D01*
X238335Y75854D01*
X238312Y75985D01*
X238285Y76114D01*
X238254Y76243D01*
X238219Y76371D01*
X238181Y76498D01*
X238139Y76624D01*
X238093Y76748D01*
X238044Y76871D01*
X237991Y76993D01*
X237934Y77113D01*
X237874Y77231D01*
X237811Y77348D01*
X237744Y77462D01*
X237674Y77575D01*
X237600Y77685D01*
X237524Y77793D01*
X237444Y77899D01*
X237361Y78003D01*
X237275Y78104D01*
X237186Y78202D01*
X237095Y78298D01*
X237000Y78391D01*
X236903Y78481D01*
X236803Y78568D01*
X236701Y78653D01*
X236596Y78734D01*
X236489Y78812D01*
X236380Y78888D01*
X236269Y78959D01*
X236155Y79028D01*
X236040Y79093D01*
X235922Y79155D01*
X235803Y79213D01*
X235682Y79268D01*
X235560Y79319D01*
X235436Y79367D01*
X235311Y79411D01*
X235185Y79451D01*
X235057Y79487D01*
X234929Y79520D01*
X234800Y79549D01*
X234669Y79574D01*
X234539Y79595D01*
X234407Y79613D01*
X234275Y79626D01*
X234143Y79636D01*
X234011Y79642D01*
X233878Y79644D01*
X234781Y86868D02*
X229362Y86868D01*
X234781Y86868D02*
X234900Y86866D01*
X235020Y86860D01*
X235139Y86850D01*
X235257Y86836D01*
X235376Y86819D01*
X235493Y86797D01*
X235610Y86772D01*
X235725Y86742D01*
X235840Y86709D01*
X235954Y86672D01*
X236066Y86632D01*
X236177Y86587D01*
X236286Y86539D01*
X236394Y86488D01*
X236500Y86433D01*
X236604Y86374D01*
X236706Y86312D01*
X236806Y86247D01*
X236904Y86178D01*
X237000Y86106D01*
X237093Y86031D01*
X237183Y85954D01*
X237271Y85873D01*
X237356Y85789D01*
X237438Y85702D01*
X237518Y85613D01*
X237594Y85521D01*
X237668Y85427D01*
X237738Y85330D01*
X237805Y85232D01*
X237869Y85131D01*
X237929Y85027D01*
X237986Y84922D01*
X238039Y84815D01*
X238089Y84707D01*
X238135Y84597D01*
X238177Y84485D01*
X238216Y84372D01*
X238251Y84258D01*
X238282Y84143D01*
X238310Y84026D01*
X238333Y83909D01*
X238353Y83792D01*
X238369Y83673D01*
X238381Y83554D01*
X238389Y83435D01*
X238393Y83316D01*
X238393Y83196D01*
X238389Y83077D01*
X238381Y82958D01*
X238369Y82839D01*
X238353Y82720D01*
X238333Y82603D01*
X238310Y82486D01*
X238282Y82369D01*
X238251Y82254D01*
X238216Y82140D01*
X238177Y82027D01*
X238135Y81915D01*
X238089Y81805D01*
X238039Y81697D01*
X237986Y81590D01*
X237929Y81485D01*
X237869Y81381D01*
X237805Y81280D01*
X237738Y81182D01*
X237668Y81085D01*
X237594Y80991D01*
X237518Y80899D01*
X237438Y80810D01*
X237356Y80723D01*
X237271Y80639D01*
X237183Y80558D01*
X237093Y80481D01*
X237000Y80406D01*
X236904Y80334D01*
X236806Y80265D01*
X236706Y80200D01*
X236604Y80138D01*
X236500Y80079D01*
X236394Y80024D01*
X236286Y79973D01*
X236177Y79925D01*
X236066Y79880D01*
X235954Y79840D01*
X235840Y79803D01*
X235725Y79770D01*
X235610Y79740D01*
X235493Y79715D01*
X235376Y79693D01*
X235257Y79676D01*
X235139Y79662D01*
X235020Y79652D01*
X234900Y79646D01*
X234781Y79644D01*
X234781Y79643D02*
X231168Y79643D01*
X207574Y86868D02*
X203962Y74224D01*
X212993Y74224D01*
X210284Y77837D02*
X210284Y70612D01*
X177631Y13462D02*
X172212Y13462D01*
X177631Y13462D02*
X177749Y13464D01*
X177867Y13470D01*
X177985Y13479D01*
X178102Y13493D01*
X178219Y13510D01*
X178336Y13531D01*
X178451Y13556D01*
X178566Y13585D01*
X178680Y13618D01*
X178792Y13654D01*
X178903Y13694D01*
X179013Y13737D01*
X179122Y13784D01*
X179229Y13834D01*
X179334Y13889D01*
X179437Y13946D01*
X179538Y14007D01*
X179638Y14071D01*
X179735Y14138D01*
X179830Y14208D01*
X179922Y14282D01*
X180013Y14358D01*
X180100Y14438D01*
X180185Y14520D01*
X180267Y14605D01*
X180347Y14692D01*
X180423Y14783D01*
X180497Y14875D01*
X180567Y14970D01*
X180634Y15067D01*
X180698Y15167D01*
X180759Y15268D01*
X180816Y15371D01*
X180871Y15476D01*
X180921Y15583D01*
X180968Y15692D01*
X181011Y15802D01*
X181051Y15913D01*
X181087Y16025D01*
X181120Y16139D01*
X181149Y16254D01*
X181174Y16369D01*
X181195Y16486D01*
X181212Y16603D01*
X181226Y16720D01*
X181235Y16838D01*
X181241Y16956D01*
X181243Y17074D01*
X181243Y18881D01*
X181241Y18999D01*
X181235Y19117D01*
X181226Y19235D01*
X181212Y19352D01*
X181195Y19469D01*
X181174Y19586D01*
X181149Y19701D01*
X181120Y19816D01*
X181087Y19930D01*
X181051Y20042D01*
X181011Y20153D01*
X180968Y20263D01*
X180921Y20372D01*
X180871Y20479D01*
X180816Y20584D01*
X180759Y20687D01*
X180698Y20788D01*
X180634Y20888D01*
X180567Y20985D01*
X180497Y21080D01*
X180423Y21172D01*
X180347Y21263D01*
X180267Y21350D01*
X180185Y21435D01*
X180100Y21517D01*
X180013Y21597D01*
X179922Y21673D01*
X179830Y21747D01*
X179735Y21817D01*
X179638Y21884D01*
X179538Y21948D01*
X179437Y22009D01*
X179334Y22066D01*
X179229Y22121D01*
X179122Y22171D01*
X179013Y22218D01*
X178903Y22261D01*
X178792Y22301D01*
X178680Y22337D01*
X178566Y22370D01*
X178451Y22399D01*
X178336Y22424D01*
X178219Y22445D01*
X178102Y22462D01*
X177985Y22476D01*
X177867Y22485D01*
X177749Y22491D01*
X177631Y22493D01*
X172212Y22493D01*
X172212Y29718D01*
X181243Y29718D01*
X299212Y17978D02*
X299214Y18111D01*
X299220Y18243D01*
X299230Y18375D01*
X299243Y18507D01*
X299261Y18639D01*
X299282Y18769D01*
X299307Y18900D01*
X299336Y19029D01*
X299369Y19157D01*
X299405Y19285D01*
X299445Y19411D01*
X299489Y19536D01*
X299537Y19660D01*
X299588Y19782D01*
X299643Y19903D01*
X299701Y20022D01*
X299763Y20140D01*
X299828Y20255D01*
X299897Y20369D01*
X299968Y20480D01*
X300044Y20589D01*
X300122Y20696D01*
X300203Y20801D01*
X300288Y20903D01*
X300375Y21003D01*
X300465Y21100D01*
X300558Y21195D01*
X300654Y21286D01*
X300752Y21375D01*
X300853Y21461D01*
X300957Y21544D01*
X301063Y21624D01*
X301171Y21700D01*
X301281Y21774D01*
X301394Y21844D01*
X301508Y21911D01*
X301625Y21974D01*
X301743Y22034D01*
X301863Y22091D01*
X301985Y22144D01*
X302108Y22193D01*
X302232Y22239D01*
X302358Y22281D01*
X302485Y22319D01*
X302613Y22354D01*
X302742Y22385D01*
X302871Y22412D01*
X303002Y22435D01*
X303133Y22455D01*
X303265Y22470D01*
X303397Y22482D01*
X303529Y22490D01*
X303662Y22494D01*
X303794Y22494D01*
X303927Y22490D01*
X304059Y22482D01*
X304191Y22470D01*
X304323Y22455D01*
X304454Y22435D01*
X304585Y22412D01*
X304714Y22385D01*
X304843Y22354D01*
X304971Y22319D01*
X305098Y22281D01*
X305224Y22239D01*
X305348Y22193D01*
X305471Y22144D01*
X305593Y22091D01*
X305713Y22034D01*
X305831Y21974D01*
X305948Y21911D01*
X306062Y21844D01*
X306175Y21774D01*
X306285Y21700D01*
X306393Y21624D01*
X306499Y21544D01*
X306603Y21461D01*
X306704Y21375D01*
X306802Y21286D01*
X306898Y21195D01*
X306991Y21100D01*
X307081Y21003D01*
X307168Y20903D01*
X307253Y20801D01*
X307334Y20696D01*
X307412Y20589D01*
X307488Y20480D01*
X307559Y20369D01*
X307628Y20255D01*
X307693Y20140D01*
X307755Y20022D01*
X307813Y19903D01*
X307868Y19782D01*
X307919Y19660D01*
X307967Y19536D01*
X308011Y19411D01*
X308051Y19285D01*
X308087Y19157D01*
X308120Y19029D01*
X308149Y18900D01*
X308174Y18769D01*
X308195Y18639D01*
X308213Y18507D01*
X308226Y18375D01*
X308236Y18243D01*
X308242Y18111D01*
X308244Y17978D01*
X308242Y17845D01*
X308236Y17713D01*
X308226Y17581D01*
X308213Y17449D01*
X308195Y17317D01*
X308174Y17187D01*
X308149Y17056D01*
X308120Y16927D01*
X308087Y16799D01*
X308051Y16671D01*
X308011Y16545D01*
X307967Y16420D01*
X307919Y16296D01*
X307868Y16174D01*
X307813Y16053D01*
X307755Y15934D01*
X307693Y15816D01*
X307628Y15701D01*
X307559Y15587D01*
X307488Y15476D01*
X307412Y15367D01*
X307334Y15260D01*
X307253Y15155D01*
X307168Y15053D01*
X307081Y14953D01*
X306991Y14856D01*
X306898Y14761D01*
X306802Y14670D01*
X306704Y14581D01*
X306603Y14495D01*
X306499Y14412D01*
X306393Y14332D01*
X306285Y14256D01*
X306175Y14182D01*
X306062Y14112D01*
X305948Y14045D01*
X305831Y13982D01*
X305713Y13922D01*
X305593Y13865D01*
X305471Y13812D01*
X305348Y13763D01*
X305224Y13717D01*
X305098Y13675D01*
X304971Y13637D01*
X304843Y13602D01*
X304714Y13571D01*
X304585Y13544D01*
X304454Y13521D01*
X304323Y13501D01*
X304191Y13486D01*
X304059Y13474D01*
X303927Y13466D01*
X303794Y13462D01*
X303662Y13462D01*
X303529Y13466D01*
X303397Y13474D01*
X303265Y13486D01*
X303133Y13501D01*
X303002Y13521D01*
X302871Y13544D01*
X302742Y13571D01*
X302613Y13602D01*
X302485Y13637D01*
X302358Y13675D01*
X302232Y13717D01*
X302108Y13763D01*
X301985Y13812D01*
X301863Y13865D01*
X301743Y13922D01*
X301625Y13982D01*
X301508Y14045D01*
X301394Y14112D01*
X301281Y14182D01*
X301171Y14256D01*
X301063Y14332D01*
X300957Y14412D01*
X300853Y14495D01*
X300752Y14581D01*
X300654Y14670D01*
X300558Y14761D01*
X300465Y14856D01*
X300375Y14953D01*
X300288Y15053D01*
X300203Y15155D01*
X300122Y15260D01*
X300044Y15367D01*
X299968Y15476D01*
X299897Y15587D01*
X299828Y15701D01*
X299763Y15816D01*
X299701Y15934D01*
X299643Y16053D01*
X299588Y16174D01*
X299537Y16296D01*
X299489Y16420D01*
X299445Y16545D01*
X299405Y16671D01*
X299369Y16799D01*
X299336Y16927D01*
X299307Y17056D01*
X299282Y17187D01*
X299261Y17317D01*
X299243Y17449D01*
X299230Y17581D01*
X299220Y17713D01*
X299214Y17845D01*
X299212Y17978D01*
X300116Y26106D02*
X300118Y26225D01*
X300124Y26345D01*
X300134Y26464D01*
X300148Y26582D01*
X300165Y26701D01*
X300187Y26818D01*
X300212Y26935D01*
X300242Y27050D01*
X300275Y27165D01*
X300312Y27279D01*
X300352Y27391D01*
X300397Y27502D01*
X300445Y27611D01*
X300496Y27719D01*
X300551Y27825D01*
X300610Y27929D01*
X300672Y28031D01*
X300737Y28131D01*
X300806Y28229D01*
X300878Y28325D01*
X300953Y28418D01*
X301030Y28508D01*
X301111Y28596D01*
X301195Y28681D01*
X301282Y28763D01*
X301371Y28843D01*
X301463Y28919D01*
X301557Y28993D01*
X301654Y29063D01*
X301752Y29130D01*
X301853Y29194D01*
X301957Y29254D01*
X302062Y29311D01*
X302169Y29364D01*
X302277Y29414D01*
X302387Y29460D01*
X302499Y29502D01*
X302612Y29541D01*
X302726Y29576D01*
X302841Y29607D01*
X302958Y29635D01*
X303075Y29658D01*
X303192Y29678D01*
X303311Y29694D01*
X303430Y29706D01*
X303549Y29714D01*
X303668Y29718D01*
X303788Y29718D01*
X303907Y29714D01*
X304026Y29706D01*
X304145Y29694D01*
X304264Y29678D01*
X304381Y29658D01*
X304498Y29635D01*
X304615Y29607D01*
X304730Y29576D01*
X304844Y29541D01*
X304957Y29502D01*
X305069Y29460D01*
X305179Y29414D01*
X305287Y29364D01*
X305394Y29311D01*
X305499Y29254D01*
X305603Y29194D01*
X305704Y29130D01*
X305802Y29063D01*
X305899Y28993D01*
X305993Y28919D01*
X306085Y28843D01*
X306174Y28763D01*
X306261Y28681D01*
X306345Y28596D01*
X306426Y28508D01*
X306503Y28418D01*
X306578Y28325D01*
X306650Y28229D01*
X306719Y28131D01*
X306784Y28031D01*
X306846Y27929D01*
X306905Y27825D01*
X306960Y27719D01*
X307011Y27611D01*
X307059Y27502D01*
X307104Y27391D01*
X307144Y27279D01*
X307181Y27165D01*
X307214Y27050D01*
X307244Y26935D01*
X307269Y26818D01*
X307291Y26701D01*
X307308Y26582D01*
X307322Y26464D01*
X307332Y26345D01*
X307338Y26225D01*
X307340Y26106D01*
X307338Y25987D01*
X307332Y25867D01*
X307322Y25748D01*
X307308Y25630D01*
X307291Y25511D01*
X307269Y25394D01*
X307244Y25277D01*
X307214Y25162D01*
X307181Y25047D01*
X307144Y24933D01*
X307104Y24821D01*
X307059Y24710D01*
X307011Y24601D01*
X306960Y24493D01*
X306905Y24387D01*
X306846Y24283D01*
X306784Y24181D01*
X306719Y24081D01*
X306650Y23983D01*
X306578Y23887D01*
X306503Y23794D01*
X306426Y23704D01*
X306345Y23616D01*
X306261Y23531D01*
X306174Y23449D01*
X306085Y23369D01*
X305993Y23293D01*
X305899Y23219D01*
X305802Y23149D01*
X305704Y23082D01*
X305603Y23018D01*
X305499Y22958D01*
X305394Y22901D01*
X305287Y22848D01*
X305179Y22798D01*
X305069Y22752D01*
X304957Y22710D01*
X304844Y22671D01*
X304730Y22636D01*
X304615Y22605D01*
X304498Y22577D01*
X304381Y22554D01*
X304264Y22534D01*
X304145Y22518D01*
X304026Y22506D01*
X303907Y22498D01*
X303788Y22494D01*
X303668Y22494D01*
X303549Y22498D01*
X303430Y22506D01*
X303311Y22518D01*
X303192Y22534D01*
X303075Y22554D01*
X302958Y22577D01*
X302841Y22605D01*
X302726Y22636D01*
X302612Y22671D01*
X302499Y22710D01*
X302387Y22752D01*
X302277Y22798D01*
X302169Y22848D01*
X302062Y22901D01*
X301957Y22958D01*
X301853Y23018D01*
X301752Y23082D01*
X301654Y23149D01*
X301557Y23219D01*
X301463Y23293D01*
X301371Y23369D01*
X301282Y23449D01*
X301195Y23531D01*
X301111Y23616D01*
X301030Y23704D01*
X300953Y23794D01*
X300878Y23887D01*
X300806Y23983D01*
X300737Y24081D01*
X300672Y24181D01*
X300610Y24283D01*
X300551Y24387D01*
X300496Y24493D01*
X300445Y24601D01*
X300397Y24710D01*
X300352Y24821D01*
X300312Y24933D01*
X300275Y25047D01*
X300242Y25162D01*
X300212Y25277D01*
X300187Y25394D01*
X300165Y25511D01*
X300148Y25630D01*
X300134Y25748D01*
X300124Y25867D01*
X300118Y25987D01*
X300116Y26106D01*
D11*
X42658Y195961D02*
X42658Y198572D01*
X42657Y198572D02*
X42659Y198673D01*
X42665Y198774D01*
X42675Y198875D01*
X42688Y198975D01*
X42706Y199075D01*
X42727Y199174D01*
X42753Y199272D01*
X42782Y199369D01*
X42814Y199465D01*
X42851Y199559D01*
X42891Y199652D01*
X42935Y199744D01*
X42982Y199833D01*
X43033Y199921D01*
X43087Y200007D01*
X43144Y200090D01*
X43204Y200172D01*
X43268Y200250D01*
X43334Y200327D01*
X43404Y200400D01*
X43476Y200471D01*
X43551Y200539D01*
X43629Y200604D01*
X43709Y200666D01*
X43791Y200725D01*
X43876Y200781D01*
X43963Y200833D01*
X44051Y200882D01*
X44142Y200928D01*
X44234Y200969D01*
X44328Y201008D01*
X44423Y201042D01*
X44519Y201073D01*
X44617Y201100D01*
X44715Y201124D01*
X44815Y201143D01*
X44915Y201159D01*
X45015Y201171D01*
X45116Y201179D01*
X45217Y201183D01*
X45319Y201183D01*
X45420Y201179D01*
X45521Y201171D01*
X45621Y201159D01*
X45721Y201143D01*
X45821Y201124D01*
X45919Y201100D01*
X46017Y201073D01*
X46113Y201042D01*
X46208Y201008D01*
X46302Y200969D01*
X46394Y200928D01*
X46485Y200882D01*
X46574Y200833D01*
X46660Y200781D01*
X46745Y200725D01*
X46827Y200666D01*
X46907Y200604D01*
X46985Y200539D01*
X47060Y200471D01*
X47132Y200400D01*
X47202Y200327D01*
X47268Y200250D01*
X47332Y200172D01*
X47392Y200090D01*
X47449Y200007D01*
X47503Y199921D01*
X47554Y199833D01*
X47601Y199744D01*
X47645Y199652D01*
X47685Y199559D01*
X47722Y199465D01*
X47754Y199369D01*
X47783Y199272D01*
X47809Y199174D01*
X47830Y199075D01*
X47848Y198975D01*
X47861Y198875D01*
X47871Y198774D01*
X47877Y198673D01*
X47879Y198572D01*
X47879Y195961D01*
X38481Y195961D01*
X38481Y198572D01*
X38483Y198662D01*
X38489Y198751D01*
X38498Y198841D01*
X38512Y198930D01*
X38529Y199018D01*
X38550Y199105D01*
X38575Y199192D01*
X38604Y199277D01*
X38636Y199361D01*
X38671Y199443D01*
X38711Y199524D01*
X38753Y199603D01*
X38799Y199680D01*
X38849Y199755D01*
X38901Y199828D01*
X38957Y199899D01*
X39015Y199967D01*
X39077Y200032D01*
X39141Y200095D01*
X39208Y200155D01*
X39277Y200212D01*
X39349Y200266D01*
X39423Y200317D01*
X39499Y200365D01*
X39577Y200409D01*
X39657Y200450D01*
X39739Y200488D01*
X39822Y200522D01*
X39907Y200552D01*
X39993Y200579D01*
X40079Y200602D01*
X40167Y200621D01*
X40256Y200636D01*
X40345Y200648D01*
X40434Y200656D01*
X40524Y200660D01*
X40614Y200660D01*
X40704Y200656D01*
X40793Y200648D01*
X40882Y200636D01*
X40971Y200621D01*
X41059Y200602D01*
X41145Y200579D01*
X41231Y200552D01*
X41316Y200522D01*
X41399Y200488D01*
X41481Y200450D01*
X41561Y200409D01*
X41639Y200365D01*
X41715Y200317D01*
X41789Y200266D01*
X41861Y200212D01*
X41930Y200155D01*
X41997Y200095D01*
X42061Y200032D01*
X42123Y199967D01*
X42181Y199899D01*
X42237Y199828D01*
X42289Y199755D01*
X42339Y199680D01*
X42385Y199603D01*
X42427Y199524D01*
X42467Y199443D01*
X42502Y199361D01*
X42534Y199277D01*
X42563Y199192D01*
X42588Y199105D01*
X42609Y199018D01*
X42626Y198930D01*
X42640Y198841D01*
X42649Y198751D01*
X42655Y198662D01*
X42657Y198572D01*
X63881Y199094D02*
X73279Y195961D01*
X73279Y202226D02*
X63881Y199094D01*
X70930Y201443D02*
X70930Y196744D01*
X98679Y189978D02*
X98679Y187889D01*
X98677Y187800D01*
X98671Y187712D01*
X98662Y187624D01*
X98649Y187536D01*
X98632Y187449D01*
X98612Y187363D01*
X98587Y187278D01*
X98560Y187193D01*
X98528Y187110D01*
X98494Y187029D01*
X98455Y186949D01*
X98414Y186871D01*
X98369Y186794D01*
X98321Y186720D01*
X98270Y186647D01*
X98216Y186577D01*
X98158Y186510D01*
X98098Y186444D01*
X98036Y186382D01*
X97970Y186322D01*
X97903Y186264D01*
X97833Y186210D01*
X97760Y186159D01*
X97686Y186111D01*
X97609Y186066D01*
X97531Y186025D01*
X97451Y185986D01*
X97370Y185952D01*
X97287Y185920D01*
X97202Y185893D01*
X97117Y185868D01*
X97031Y185848D01*
X96944Y185831D01*
X96856Y185818D01*
X96768Y185809D01*
X96680Y185803D01*
X96591Y185801D01*
X91369Y185801D01*
X91278Y185803D01*
X91187Y185809D01*
X91096Y185819D01*
X91006Y185833D01*
X90917Y185851D01*
X90828Y185872D01*
X90741Y185898D01*
X90655Y185927D01*
X90570Y185960D01*
X90486Y185997D01*
X90404Y186037D01*
X90325Y186081D01*
X90247Y186128D01*
X90171Y186179D01*
X90097Y186233D01*
X90026Y186290D01*
X89958Y186350D01*
X89892Y186413D01*
X89829Y186479D01*
X89769Y186547D01*
X89712Y186618D01*
X89658Y186692D01*
X89607Y186768D01*
X89560Y186845D01*
X89516Y186925D01*
X89476Y187007D01*
X89439Y187091D01*
X89406Y187175D01*
X89377Y187262D01*
X89351Y187349D01*
X89330Y187438D01*
X89312Y187527D01*
X89298Y187617D01*
X89288Y187708D01*
X89282Y187799D01*
X89280Y187890D01*
X89281Y187889D02*
X89281Y189978D01*
X96591Y198363D02*
X96680Y198361D01*
X96768Y198355D01*
X96856Y198346D01*
X96944Y198333D01*
X97031Y198316D01*
X97117Y198296D01*
X97202Y198271D01*
X97287Y198244D01*
X97370Y198212D01*
X97451Y198178D01*
X97531Y198139D01*
X97609Y198098D01*
X97686Y198053D01*
X97760Y198005D01*
X97833Y197954D01*
X97903Y197900D01*
X97970Y197842D01*
X98036Y197782D01*
X98098Y197720D01*
X98158Y197654D01*
X98216Y197587D01*
X98270Y197517D01*
X98321Y197444D01*
X98369Y197370D01*
X98414Y197293D01*
X98455Y197215D01*
X98494Y197135D01*
X98528Y197054D01*
X98560Y196971D01*
X98587Y196886D01*
X98612Y196801D01*
X98632Y196715D01*
X98649Y196628D01*
X98662Y196540D01*
X98671Y196452D01*
X98677Y196364D01*
X98679Y196275D01*
X98677Y196146D01*
X98671Y196017D01*
X98662Y195888D01*
X98649Y195760D01*
X98632Y195632D01*
X98611Y195505D01*
X98587Y195378D01*
X98559Y195252D01*
X98527Y195127D01*
X98492Y195003D01*
X98453Y194880D01*
X98410Y194758D01*
X98364Y194638D01*
X98314Y194519D01*
X98261Y194401D01*
X98205Y194285D01*
X98145Y194171D01*
X98082Y194058D01*
X98015Y193948D01*
X97946Y193839D01*
X97873Y193733D01*
X97797Y193628D01*
X97718Y193526D01*
X97636Y193427D01*
X97552Y193329D01*
X97464Y193234D01*
X97374Y193142D01*
X91369Y193403D02*
X91280Y193405D01*
X91192Y193411D01*
X91104Y193420D01*
X91016Y193433D01*
X90929Y193450D01*
X90843Y193470D01*
X90758Y193495D01*
X90673Y193522D01*
X90590Y193554D01*
X90509Y193588D01*
X90429Y193627D01*
X90351Y193668D01*
X90274Y193713D01*
X90200Y193761D01*
X90127Y193812D01*
X90057Y193866D01*
X89990Y193924D01*
X89924Y193984D01*
X89862Y194046D01*
X89802Y194112D01*
X89744Y194179D01*
X89690Y194249D01*
X89639Y194322D01*
X89591Y194396D01*
X89546Y194473D01*
X89505Y194551D01*
X89466Y194631D01*
X89432Y194712D01*
X89400Y194795D01*
X89373Y194880D01*
X89348Y194965D01*
X89328Y195051D01*
X89311Y195138D01*
X89298Y195226D01*
X89289Y195314D01*
X89283Y195402D01*
X89281Y195491D01*
X89283Y195611D01*
X89288Y195731D01*
X89298Y195850D01*
X89310Y195970D01*
X89327Y196089D01*
X89347Y196207D01*
X89371Y196325D01*
X89398Y196441D01*
X89429Y196557D01*
X89463Y196672D01*
X89501Y196786D01*
X89543Y196899D01*
X89588Y197010D01*
X89636Y197120D01*
X89687Y197228D01*
X89742Y197335D01*
X89800Y197440D01*
X89862Y197543D01*
X89926Y197644D01*
X89994Y197744D01*
X90064Y197841D01*
X93196Y194447D02*
X93148Y194369D01*
X93096Y194293D01*
X93042Y194220D01*
X92984Y194149D01*
X92923Y194080D01*
X92859Y194014D01*
X92792Y193951D01*
X92723Y193891D01*
X92651Y193834D01*
X92577Y193780D01*
X92500Y193730D01*
X92421Y193682D01*
X92341Y193639D01*
X92258Y193598D01*
X92174Y193562D01*
X92089Y193529D01*
X92002Y193500D01*
X91913Y193474D01*
X91824Y193452D01*
X91734Y193435D01*
X91644Y193421D01*
X91552Y193411D01*
X91461Y193405D01*
X91369Y193403D01*
X94764Y197319D02*
X94812Y197397D01*
X94864Y197473D01*
X94918Y197546D01*
X94976Y197617D01*
X95037Y197686D01*
X95101Y197752D01*
X95168Y197815D01*
X95237Y197875D01*
X95309Y197932D01*
X95383Y197986D01*
X95460Y198036D01*
X95539Y198084D01*
X95619Y198127D01*
X95702Y198168D01*
X95786Y198204D01*
X95871Y198237D01*
X95958Y198266D01*
X96047Y198292D01*
X96136Y198314D01*
X96226Y198331D01*
X96316Y198345D01*
X96408Y198355D01*
X96499Y198361D01*
X96591Y198363D01*
X94763Y197319D02*
X93197Y194447D01*
X114681Y170561D02*
X124079Y170561D01*
X119902Y173694D02*
X114681Y170561D01*
X119902Y173694D02*
X114681Y176826D01*
X124079Y176826D01*
X121468Y181141D02*
X117292Y181141D01*
X117191Y181143D01*
X117090Y181149D01*
X116989Y181159D01*
X116889Y181172D01*
X116789Y181190D01*
X116690Y181211D01*
X116592Y181237D01*
X116495Y181266D01*
X116399Y181298D01*
X116305Y181335D01*
X116212Y181375D01*
X116120Y181419D01*
X116031Y181466D01*
X115943Y181517D01*
X115857Y181571D01*
X115774Y181628D01*
X115692Y181688D01*
X115614Y181752D01*
X115537Y181818D01*
X115464Y181888D01*
X115393Y181960D01*
X115325Y182035D01*
X115260Y182113D01*
X115198Y182193D01*
X115139Y182275D01*
X115083Y182360D01*
X115031Y182447D01*
X114982Y182535D01*
X114936Y182626D01*
X114895Y182718D01*
X114856Y182812D01*
X114822Y182907D01*
X114791Y183003D01*
X114764Y183101D01*
X114740Y183199D01*
X114721Y183299D01*
X114705Y183399D01*
X114693Y183499D01*
X114685Y183600D01*
X114681Y183701D01*
X114681Y183803D01*
X114685Y183904D01*
X114693Y184005D01*
X114705Y184105D01*
X114721Y184205D01*
X114740Y184305D01*
X114764Y184403D01*
X114791Y184501D01*
X114822Y184597D01*
X114856Y184692D01*
X114895Y184786D01*
X114936Y184878D01*
X114982Y184969D01*
X115031Y185058D01*
X115083Y185144D01*
X115139Y185229D01*
X115198Y185311D01*
X115260Y185391D01*
X115325Y185469D01*
X115393Y185544D01*
X115464Y185616D01*
X115537Y185686D01*
X115614Y185752D01*
X115692Y185816D01*
X115774Y185876D01*
X115857Y185933D01*
X115943Y185987D01*
X116031Y186038D01*
X116120Y186085D01*
X116212Y186129D01*
X116305Y186169D01*
X116399Y186206D01*
X116495Y186238D01*
X116592Y186267D01*
X116690Y186293D01*
X116789Y186314D01*
X116889Y186332D01*
X116989Y186345D01*
X117090Y186355D01*
X117191Y186361D01*
X117292Y186363D01*
X121468Y186363D01*
X121569Y186361D01*
X121670Y186355D01*
X121771Y186345D01*
X121871Y186332D01*
X121971Y186314D01*
X122070Y186293D01*
X122168Y186267D01*
X122265Y186238D01*
X122361Y186206D01*
X122455Y186169D01*
X122548Y186129D01*
X122640Y186085D01*
X122729Y186038D01*
X122817Y185987D01*
X122903Y185933D01*
X122986Y185876D01*
X123068Y185816D01*
X123146Y185752D01*
X123223Y185686D01*
X123296Y185616D01*
X123367Y185544D01*
X123435Y185469D01*
X123500Y185391D01*
X123562Y185311D01*
X123621Y185229D01*
X123677Y185144D01*
X123729Y185057D01*
X123778Y184969D01*
X123824Y184878D01*
X123865Y184786D01*
X123904Y184692D01*
X123938Y184597D01*
X123969Y184501D01*
X123996Y184403D01*
X124020Y184305D01*
X124039Y184205D01*
X124055Y184105D01*
X124067Y184005D01*
X124075Y183904D01*
X124079Y183803D01*
X124079Y183701D01*
X124075Y183600D01*
X124067Y183499D01*
X124055Y183399D01*
X124039Y183299D01*
X124020Y183199D01*
X123996Y183101D01*
X123969Y183003D01*
X123938Y182907D01*
X123904Y182812D01*
X123865Y182718D01*
X123824Y182626D01*
X123778Y182535D01*
X123729Y182446D01*
X123677Y182360D01*
X123621Y182275D01*
X123562Y182193D01*
X123500Y182113D01*
X123435Y182035D01*
X123367Y181960D01*
X123296Y181888D01*
X123223Y181818D01*
X123146Y181752D01*
X123068Y181688D01*
X122986Y181628D01*
X122903Y181571D01*
X122817Y181517D01*
X122729Y181466D01*
X122640Y181419D01*
X122548Y181375D01*
X122455Y181335D01*
X122361Y181298D01*
X122265Y181266D01*
X122168Y181237D01*
X122070Y181211D01*
X121971Y181190D01*
X121871Y181172D01*
X121771Y181159D01*
X121670Y181149D01*
X121569Y181143D01*
X121468Y181141D01*
X124079Y193113D02*
X124077Y193202D01*
X124071Y193290D01*
X124062Y193378D01*
X124049Y193466D01*
X124032Y193553D01*
X124012Y193639D01*
X123987Y193724D01*
X123960Y193809D01*
X123928Y193892D01*
X123894Y193973D01*
X123855Y194053D01*
X123814Y194131D01*
X123769Y194208D01*
X123721Y194282D01*
X123670Y194355D01*
X123616Y194425D01*
X123558Y194492D01*
X123498Y194558D01*
X123436Y194620D01*
X123370Y194680D01*
X123303Y194738D01*
X123233Y194792D01*
X123160Y194843D01*
X123086Y194891D01*
X123009Y194936D01*
X122931Y194977D01*
X122851Y195016D01*
X122770Y195050D01*
X122687Y195082D01*
X122602Y195109D01*
X122517Y195134D01*
X122431Y195154D01*
X122344Y195171D01*
X122256Y195184D01*
X122168Y195193D01*
X122080Y195199D01*
X121991Y195201D01*
X124079Y193113D02*
X124077Y192984D01*
X124071Y192855D01*
X124062Y192726D01*
X124049Y192598D01*
X124032Y192470D01*
X124011Y192343D01*
X123987Y192216D01*
X123959Y192090D01*
X123927Y191965D01*
X123892Y191841D01*
X123853Y191718D01*
X123810Y191596D01*
X123764Y191476D01*
X123714Y191357D01*
X123661Y191239D01*
X123605Y191123D01*
X123545Y191009D01*
X123482Y190896D01*
X123415Y190786D01*
X123346Y190677D01*
X123273Y190571D01*
X123197Y190466D01*
X123118Y190364D01*
X123036Y190265D01*
X122952Y190167D01*
X122864Y190072D01*
X122774Y189980D01*
X116769Y190242D02*
X116680Y190244D01*
X116592Y190250D01*
X116504Y190259D01*
X116416Y190272D01*
X116329Y190289D01*
X116243Y190309D01*
X116158Y190334D01*
X116073Y190361D01*
X115990Y190393D01*
X115909Y190427D01*
X115829Y190466D01*
X115751Y190507D01*
X115674Y190552D01*
X115600Y190600D01*
X115527Y190651D01*
X115457Y190705D01*
X115390Y190763D01*
X115324Y190823D01*
X115262Y190885D01*
X115202Y190951D01*
X115144Y191018D01*
X115090Y191088D01*
X115039Y191161D01*
X114991Y191235D01*
X114946Y191312D01*
X114905Y191390D01*
X114866Y191470D01*
X114832Y191551D01*
X114800Y191634D01*
X114773Y191719D01*
X114748Y191804D01*
X114728Y191890D01*
X114711Y191977D01*
X114698Y192065D01*
X114689Y192153D01*
X114683Y192241D01*
X114681Y192330D01*
X114683Y192450D01*
X114688Y192570D01*
X114698Y192689D01*
X114710Y192809D01*
X114727Y192928D01*
X114747Y193046D01*
X114771Y193164D01*
X114798Y193280D01*
X114829Y193396D01*
X114863Y193511D01*
X114901Y193625D01*
X114943Y193738D01*
X114988Y193849D01*
X115036Y193959D01*
X115087Y194067D01*
X115142Y194174D01*
X115200Y194279D01*
X115262Y194382D01*
X115326Y194483D01*
X115394Y194583D01*
X115464Y194680D01*
X118596Y191286D02*
X118548Y191208D01*
X118496Y191132D01*
X118442Y191059D01*
X118384Y190988D01*
X118323Y190919D01*
X118259Y190853D01*
X118192Y190790D01*
X118123Y190730D01*
X118051Y190673D01*
X117977Y190619D01*
X117900Y190569D01*
X117821Y190521D01*
X117741Y190478D01*
X117658Y190437D01*
X117574Y190401D01*
X117489Y190368D01*
X117402Y190339D01*
X117313Y190313D01*
X117224Y190291D01*
X117134Y190274D01*
X117044Y190260D01*
X116952Y190250D01*
X116861Y190244D01*
X116769Y190242D01*
X120164Y194158D02*
X120212Y194236D01*
X120264Y194312D01*
X120318Y194385D01*
X120376Y194456D01*
X120437Y194525D01*
X120501Y194591D01*
X120568Y194654D01*
X120637Y194714D01*
X120709Y194771D01*
X120783Y194825D01*
X120860Y194875D01*
X120939Y194923D01*
X121019Y194966D01*
X121102Y195007D01*
X121186Y195043D01*
X121271Y195076D01*
X121358Y195105D01*
X121447Y195131D01*
X121536Y195153D01*
X121626Y195170D01*
X121716Y195184D01*
X121808Y195194D01*
X121899Y195200D01*
X121991Y195202D01*
X120163Y194158D02*
X118597Y191286D01*
X114681Y199602D02*
X124079Y199602D01*
X124079Y200646D02*
X124079Y198557D01*
X114681Y198557D02*
X114681Y200646D01*
X142621Y170561D02*
X152019Y170561D01*
X147842Y173694D02*
X142621Y170561D01*
X147842Y173694D02*
X142621Y176826D01*
X152019Y176826D01*
X152019Y181923D02*
X142621Y181923D01*
X152019Y180879D02*
X152019Y182967D01*
X142621Y182967D02*
X142621Y180879D01*
X152019Y189456D02*
X152017Y189545D01*
X152011Y189633D01*
X152002Y189721D01*
X151989Y189809D01*
X151972Y189896D01*
X151952Y189982D01*
X151927Y190067D01*
X151900Y190152D01*
X151868Y190235D01*
X151834Y190316D01*
X151795Y190396D01*
X151754Y190474D01*
X151709Y190551D01*
X151661Y190625D01*
X151610Y190698D01*
X151556Y190768D01*
X151498Y190835D01*
X151438Y190901D01*
X151376Y190963D01*
X151310Y191023D01*
X151243Y191081D01*
X151173Y191135D01*
X151100Y191186D01*
X151026Y191234D01*
X150949Y191279D01*
X150871Y191320D01*
X150791Y191359D01*
X150710Y191393D01*
X150627Y191425D01*
X150542Y191452D01*
X150457Y191477D01*
X150371Y191497D01*
X150284Y191514D01*
X150196Y191527D01*
X150108Y191536D01*
X150020Y191542D01*
X149931Y191544D01*
X152019Y189456D02*
X152017Y189327D01*
X152011Y189198D01*
X152002Y189069D01*
X151989Y188941D01*
X151972Y188813D01*
X151951Y188686D01*
X151927Y188559D01*
X151899Y188433D01*
X151867Y188308D01*
X151832Y188184D01*
X151793Y188061D01*
X151750Y187939D01*
X151704Y187819D01*
X151654Y187700D01*
X151601Y187582D01*
X151545Y187466D01*
X151485Y187352D01*
X151422Y187239D01*
X151355Y187129D01*
X151286Y187020D01*
X151213Y186914D01*
X151137Y186809D01*
X151058Y186707D01*
X150976Y186608D01*
X150892Y186510D01*
X150804Y186415D01*
X150714Y186323D01*
X144709Y186585D02*
X144620Y186587D01*
X144532Y186593D01*
X144444Y186602D01*
X144356Y186615D01*
X144269Y186632D01*
X144183Y186652D01*
X144098Y186677D01*
X144013Y186704D01*
X143930Y186736D01*
X143849Y186770D01*
X143769Y186809D01*
X143691Y186850D01*
X143614Y186895D01*
X143540Y186943D01*
X143467Y186994D01*
X143397Y187048D01*
X143330Y187106D01*
X143264Y187166D01*
X143202Y187228D01*
X143142Y187294D01*
X143084Y187361D01*
X143030Y187431D01*
X142979Y187504D01*
X142931Y187578D01*
X142886Y187655D01*
X142845Y187733D01*
X142806Y187813D01*
X142772Y187894D01*
X142740Y187977D01*
X142713Y188062D01*
X142688Y188147D01*
X142668Y188233D01*
X142651Y188320D01*
X142638Y188408D01*
X142629Y188496D01*
X142623Y188584D01*
X142621Y188673D01*
X142623Y188793D01*
X142628Y188913D01*
X142638Y189032D01*
X142650Y189152D01*
X142667Y189271D01*
X142687Y189389D01*
X142711Y189507D01*
X142738Y189623D01*
X142769Y189739D01*
X142803Y189854D01*
X142841Y189968D01*
X142883Y190081D01*
X142928Y190192D01*
X142976Y190302D01*
X143027Y190410D01*
X143082Y190517D01*
X143140Y190622D01*
X143202Y190725D01*
X143266Y190826D01*
X143334Y190926D01*
X143404Y191023D01*
X146536Y187628D02*
X146488Y187550D01*
X146436Y187474D01*
X146382Y187401D01*
X146324Y187330D01*
X146263Y187261D01*
X146199Y187195D01*
X146132Y187132D01*
X146063Y187072D01*
X145991Y187015D01*
X145917Y186961D01*
X145840Y186911D01*
X145761Y186863D01*
X145681Y186820D01*
X145598Y186779D01*
X145514Y186743D01*
X145429Y186710D01*
X145342Y186681D01*
X145253Y186655D01*
X145164Y186633D01*
X145074Y186616D01*
X144984Y186602D01*
X144892Y186592D01*
X144801Y186586D01*
X144709Y186584D01*
X148104Y190500D02*
X148152Y190578D01*
X148204Y190654D01*
X148258Y190727D01*
X148316Y190798D01*
X148377Y190867D01*
X148441Y190933D01*
X148508Y190996D01*
X148577Y191056D01*
X148649Y191113D01*
X148723Y191167D01*
X148800Y191217D01*
X148879Y191265D01*
X148959Y191308D01*
X149042Y191349D01*
X149126Y191385D01*
X149211Y191418D01*
X149298Y191447D01*
X149387Y191473D01*
X149476Y191495D01*
X149566Y191512D01*
X149656Y191526D01*
X149748Y191536D01*
X149839Y191542D01*
X149931Y191544D01*
X148103Y190500D02*
X146537Y187628D01*
X145232Y195162D02*
X149408Y195162D01*
X145232Y195162D02*
X145131Y195164D01*
X145030Y195170D01*
X144929Y195180D01*
X144829Y195193D01*
X144729Y195211D01*
X144630Y195232D01*
X144532Y195258D01*
X144435Y195287D01*
X144339Y195319D01*
X144245Y195356D01*
X144152Y195396D01*
X144060Y195440D01*
X143971Y195487D01*
X143883Y195538D01*
X143797Y195592D01*
X143714Y195649D01*
X143632Y195709D01*
X143554Y195773D01*
X143477Y195839D01*
X143404Y195909D01*
X143333Y195981D01*
X143265Y196056D01*
X143200Y196134D01*
X143138Y196214D01*
X143079Y196296D01*
X143023Y196381D01*
X142971Y196468D01*
X142922Y196556D01*
X142876Y196647D01*
X142835Y196739D01*
X142796Y196833D01*
X142762Y196928D01*
X142731Y197024D01*
X142704Y197122D01*
X142680Y197220D01*
X142661Y197320D01*
X142645Y197420D01*
X142633Y197520D01*
X142625Y197621D01*
X142621Y197722D01*
X142621Y197824D01*
X142625Y197925D01*
X142633Y198026D01*
X142645Y198126D01*
X142661Y198226D01*
X142680Y198326D01*
X142704Y198424D01*
X142731Y198522D01*
X142762Y198618D01*
X142796Y198713D01*
X142835Y198807D01*
X142876Y198899D01*
X142922Y198990D01*
X142971Y199079D01*
X143023Y199165D01*
X143079Y199250D01*
X143138Y199332D01*
X143200Y199412D01*
X143265Y199490D01*
X143333Y199565D01*
X143404Y199637D01*
X143477Y199707D01*
X143554Y199773D01*
X143632Y199837D01*
X143714Y199897D01*
X143797Y199954D01*
X143883Y200008D01*
X143971Y200059D01*
X144060Y200106D01*
X144152Y200150D01*
X144245Y200190D01*
X144339Y200227D01*
X144435Y200259D01*
X144532Y200288D01*
X144630Y200314D01*
X144729Y200335D01*
X144829Y200353D01*
X144929Y200366D01*
X145030Y200376D01*
X145131Y200382D01*
X145232Y200384D01*
X145232Y200383D02*
X149408Y200383D01*
X149408Y200384D02*
X149509Y200382D01*
X149610Y200376D01*
X149711Y200366D01*
X149811Y200353D01*
X149911Y200335D01*
X150010Y200314D01*
X150108Y200288D01*
X150205Y200259D01*
X150301Y200227D01*
X150395Y200190D01*
X150488Y200150D01*
X150580Y200106D01*
X150669Y200059D01*
X150757Y200008D01*
X150843Y199954D01*
X150926Y199897D01*
X151008Y199837D01*
X151086Y199773D01*
X151163Y199707D01*
X151236Y199637D01*
X151307Y199565D01*
X151375Y199490D01*
X151440Y199412D01*
X151502Y199332D01*
X151561Y199250D01*
X151617Y199165D01*
X151669Y199078D01*
X151718Y198990D01*
X151764Y198899D01*
X151805Y198807D01*
X151844Y198713D01*
X151878Y198618D01*
X151909Y198522D01*
X151936Y198424D01*
X151960Y198326D01*
X151979Y198226D01*
X151995Y198126D01*
X152007Y198026D01*
X152015Y197925D01*
X152019Y197824D01*
X152019Y197722D01*
X152015Y197621D01*
X152007Y197520D01*
X151995Y197420D01*
X151979Y197320D01*
X151960Y197220D01*
X151936Y197122D01*
X151909Y197024D01*
X151878Y196928D01*
X151844Y196833D01*
X151805Y196739D01*
X151764Y196647D01*
X151718Y196556D01*
X151669Y196467D01*
X151617Y196381D01*
X151561Y196296D01*
X151502Y196214D01*
X151440Y196134D01*
X151375Y196056D01*
X151307Y195981D01*
X151236Y195909D01*
X151163Y195839D01*
X151086Y195773D01*
X151008Y195709D01*
X150926Y195649D01*
X150843Y195592D01*
X150757Y195538D01*
X150669Y195487D01*
X150580Y195440D01*
X150488Y195396D01*
X150395Y195356D01*
X150301Y195319D01*
X150205Y195287D01*
X150108Y195258D01*
X150010Y195232D01*
X149911Y195211D01*
X149811Y195193D01*
X149711Y195180D01*
X149610Y195170D01*
X149509Y195164D01*
X149408Y195162D01*
X175331Y183402D02*
X175420Y183400D01*
X175508Y183394D01*
X175596Y183385D01*
X175684Y183372D01*
X175771Y183355D01*
X175857Y183335D01*
X175942Y183310D01*
X176027Y183283D01*
X176110Y183251D01*
X176191Y183217D01*
X176271Y183178D01*
X176349Y183137D01*
X176426Y183092D01*
X176500Y183044D01*
X176573Y182993D01*
X176643Y182939D01*
X176710Y182881D01*
X176776Y182821D01*
X176838Y182759D01*
X176898Y182693D01*
X176956Y182626D01*
X177010Y182556D01*
X177061Y182483D01*
X177109Y182409D01*
X177154Y182332D01*
X177195Y182254D01*
X177234Y182174D01*
X177268Y182093D01*
X177300Y182010D01*
X177327Y181925D01*
X177352Y181840D01*
X177372Y181754D01*
X177389Y181667D01*
X177402Y181579D01*
X177411Y181491D01*
X177417Y181403D01*
X177419Y181314D01*
X177417Y181185D01*
X177411Y181056D01*
X177402Y180927D01*
X177389Y180799D01*
X177372Y180671D01*
X177351Y180544D01*
X177327Y180417D01*
X177299Y180291D01*
X177267Y180166D01*
X177232Y180042D01*
X177193Y179919D01*
X177150Y179797D01*
X177104Y179677D01*
X177054Y179558D01*
X177001Y179440D01*
X176945Y179324D01*
X176885Y179210D01*
X176822Y179097D01*
X176755Y178987D01*
X176686Y178878D01*
X176613Y178772D01*
X176537Y178667D01*
X176458Y178565D01*
X176376Y178466D01*
X176292Y178368D01*
X176204Y178273D01*
X176114Y178181D01*
X170109Y178443D02*
X170020Y178445D01*
X169932Y178451D01*
X169844Y178460D01*
X169756Y178473D01*
X169669Y178490D01*
X169583Y178510D01*
X169498Y178535D01*
X169413Y178562D01*
X169330Y178594D01*
X169249Y178628D01*
X169169Y178667D01*
X169091Y178708D01*
X169014Y178753D01*
X168940Y178801D01*
X168867Y178852D01*
X168797Y178906D01*
X168730Y178964D01*
X168664Y179024D01*
X168602Y179086D01*
X168542Y179152D01*
X168484Y179219D01*
X168430Y179289D01*
X168379Y179362D01*
X168331Y179436D01*
X168286Y179513D01*
X168245Y179591D01*
X168206Y179671D01*
X168172Y179752D01*
X168140Y179835D01*
X168113Y179920D01*
X168088Y180005D01*
X168068Y180091D01*
X168051Y180178D01*
X168038Y180266D01*
X168029Y180354D01*
X168023Y180442D01*
X168021Y180531D01*
X168023Y180651D01*
X168028Y180771D01*
X168038Y180890D01*
X168050Y181010D01*
X168067Y181129D01*
X168087Y181247D01*
X168111Y181365D01*
X168138Y181481D01*
X168169Y181597D01*
X168203Y181712D01*
X168241Y181826D01*
X168283Y181939D01*
X168328Y182050D01*
X168376Y182160D01*
X168427Y182268D01*
X168482Y182375D01*
X168540Y182480D01*
X168602Y182583D01*
X168666Y182684D01*
X168734Y182784D01*
X168804Y182881D01*
X171936Y179486D02*
X171888Y179408D01*
X171836Y179332D01*
X171782Y179259D01*
X171724Y179188D01*
X171663Y179119D01*
X171599Y179053D01*
X171532Y178990D01*
X171463Y178930D01*
X171391Y178873D01*
X171317Y178819D01*
X171240Y178769D01*
X171161Y178721D01*
X171081Y178678D01*
X170998Y178637D01*
X170914Y178601D01*
X170829Y178568D01*
X170742Y178539D01*
X170653Y178513D01*
X170564Y178491D01*
X170474Y178474D01*
X170384Y178460D01*
X170292Y178450D01*
X170201Y178444D01*
X170109Y178442D01*
X173504Y182358D02*
X173552Y182436D01*
X173604Y182512D01*
X173658Y182585D01*
X173716Y182656D01*
X173777Y182725D01*
X173841Y182791D01*
X173908Y182854D01*
X173977Y182914D01*
X174049Y182971D01*
X174123Y183025D01*
X174200Y183075D01*
X174279Y183123D01*
X174359Y183166D01*
X174442Y183207D01*
X174526Y183243D01*
X174611Y183276D01*
X174698Y183305D01*
X174787Y183331D01*
X174876Y183353D01*
X174966Y183370D01*
X175056Y183384D01*
X175148Y183394D01*
X175239Y183400D01*
X175331Y183402D01*
X173503Y182358D02*
X171937Y179486D01*
X177419Y189083D02*
X177419Y191171D01*
X177419Y189083D02*
X177417Y188994D01*
X177411Y188906D01*
X177402Y188818D01*
X177389Y188730D01*
X177372Y188643D01*
X177352Y188557D01*
X177327Y188472D01*
X177300Y188387D01*
X177268Y188304D01*
X177234Y188223D01*
X177195Y188143D01*
X177154Y188065D01*
X177109Y187988D01*
X177061Y187914D01*
X177010Y187841D01*
X176956Y187771D01*
X176898Y187704D01*
X176838Y187638D01*
X176776Y187576D01*
X176710Y187516D01*
X176643Y187458D01*
X176573Y187404D01*
X176500Y187353D01*
X176426Y187305D01*
X176349Y187260D01*
X176271Y187219D01*
X176191Y187180D01*
X176110Y187146D01*
X176027Y187114D01*
X175942Y187087D01*
X175857Y187062D01*
X175771Y187042D01*
X175684Y187025D01*
X175596Y187012D01*
X175508Y187003D01*
X175420Y186997D01*
X175331Y186995D01*
X175331Y186994D02*
X170109Y186994D01*
X170018Y186996D01*
X169927Y187002D01*
X169836Y187012D01*
X169746Y187026D01*
X169657Y187044D01*
X169568Y187065D01*
X169481Y187091D01*
X169395Y187120D01*
X169310Y187153D01*
X169226Y187190D01*
X169144Y187230D01*
X169065Y187274D01*
X168987Y187321D01*
X168911Y187372D01*
X168837Y187426D01*
X168766Y187483D01*
X168698Y187543D01*
X168632Y187606D01*
X168569Y187672D01*
X168509Y187740D01*
X168452Y187811D01*
X168398Y187885D01*
X168347Y187961D01*
X168300Y188038D01*
X168256Y188118D01*
X168216Y188200D01*
X168179Y188284D01*
X168146Y188368D01*
X168117Y188455D01*
X168091Y188542D01*
X168070Y188631D01*
X168052Y188720D01*
X168038Y188810D01*
X168028Y188901D01*
X168022Y188992D01*
X168020Y189083D01*
X168021Y189083D02*
X168021Y191171D01*
X168021Y195076D02*
X177419Y195076D01*
X173764Y195076D02*
X168021Y200297D01*
X171676Y197165D02*
X177419Y200297D01*
X332359Y196554D02*
X332359Y193421D01*
X332359Y196554D02*
X332357Y196643D01*
X332351Y196731D01*
X332342Y196819D01*
X332329Y196907D01*
X332312Y196994D01*
X332292Y197080D01*
X332267Y197165D01*
X332240Y197250D01*
X332208Y197333D01*
X332174Y197414D01*
X332135Y197494D01*
X332094Y197572D01*
X332049Y197649D01*
X332001Y197723D01*
X331950Y197796D01*
X331896Y197866D01*
X331838Y197933D01*
X331778Y197999D01*
X331716Y198061D01*
X331650Y198121D01*
X331583Y198179D01*
X331513Y198233D01*
X331440Y198284D01*
X331366Y198332D01*
X331289Y198377D01*
X331211Y198418D01*
X331131Y198457D01*
X331050Y198491D01*
X330967Y198523D01*
X330882Y198550D01*
X330797Y198575D01*
X330711Y198595D01*
X330624Y198612D01*
X330536Y198625D01*
X330448Y198634D01*
X330360Y198640D01*
X330271Y198642D01*
X329226Y198642D01*
X329137Y198640D01*
X329049Y198634D01*
X328961Y198625D01*
X328873Y198612D01*
X328786Y198595D01*
X328700Y198575D01*
X328615Y198550D01*
X328530Y198523D01*
X328447Y198491D01*
X328366Y198457D01*
X328286Y198418D01*
X328208Y198377D01*
X328131Y198332D01*
X328057Y198284D01*
X327984Y198233D01*
X327914Y198179D01*
X327847Y198121D01*
X327781Y198061D01*
X327719Y197999D01*
X327659Y197933D01*
X327601Y197866D01*
X327547Y197796D01*
X327496Y197723D01*
X327448Y197649D01*
X327403Y197572D01*
X327362Y197494D01*
X327323Y197414D01*
X327289Y197333D01*
X327257Y197250D01*
X327230Y197165D01*
X327205Y197080D01*
X327185Y196994D01*
X327168Y196907D01*
X327155Y196819D01*
X327146Y196731D01*
X327140Y196643D01*
X327138Y196554D01*
X327138Y193421D01*
X322961Y193421D01*
X322961Y198642D01*
X322961Y202043D02*
X332359Y205176D01*
X322961Y208308D01*
X383159Y183332D02*
X383159Y180721D01*
X383159Y183332D02*
X383157Y183433D01*
X383151Y183534D01*
X383141Y183635D01*
X383128Y183735D01*
X383110Y183835D01*
X383089Y183934D01*
X383063Y184032D01*
X383034Y184129D01*
X383002Y184225D01*
X382965Y184319D01*
X382925Y184412D01*
X382881Y184504D01*
X382834Y184593D01*
X382783Y184681D01*
X382729Y184767D01*
X382672Y184850D01*
X382612Y184932D01*
X382548Y185010D01*
X382482Y185087D01*
X382412Y185160D01*
X382340Y185231D01*
X382265Y185299D01*
X382187Y185364D01*
X382107Y185426D01*
X382025Y185485D01*
X381940Y185541D01*
X381854Y185593D01*
X381765Y185642D01*
X381674Y185688D01*
X381582Y185729D01*
X381488Y185768D01*
X381393Y185802D01*
X381297Y185833D01*
X381199Y185860D01*
X381101Y185884D01*
X381001Y185903D01*
X380901Y185919D01*
X380801Y185931D01*
X380700Y185939D01*
X380599Y185943D01*
X380497Y185943D01*
X380396Y185939D01*
X380295Y185931D01*
X380195Y185919D01*
X380095Y185903D01*
X379995Y185884D01*
X379897Y185860D01*
X379799Y185833D01*
X379703Y185802D01*
X379608Y185768D01*
X379514Y185729D01*
X379422Y185688D01*
X379331Y185642D01*
X379243Y185593D01*
X379156Y185541D01*
X379071Y185485D01*
X378989Y185426D01*
X378909Y185364D01*
X378831Y185299D01*
X378756Y185231D01*
X378684Y185160D01*
X378614Y185087D01*
X378548Y185010D01*
X378484Y184932D01*
X378424Y184850D01*
X378367Y184767D01*
X378313Y184681D01*
X378262Y184593D01*
X378215Y184504D01*
X378171Y184412D01*
X378131Y184319D01*
X378094Y184225D01*
X378062Y184129D01*
X378033Y184032D01*
X378007Y183934D01*
X377986Y183835D01*
X377968Y183735D01*
X377955Y183635D01*
X377945Y183534D01*
X377939Y183433D01*
X377937Y183332D01*
X373761Y183854D02*
X373761Y180721D01*
X373761Y183854D02*
X373763Y183944D01*
X373769Y184033D01*
X373778Y184123D01*
X373792Y184212D01*
X373809Y184300D01*
X373830Y184387D01*
X373855Y184474D01*
X373884Y184559D01*
X373916Y184643D01*
X373951Y184725D01*
X373991Y184806D01*
X374033Y184885D01*
X374079Y184962D01*
X374129Y185037D01*
X374181Y185110D01*
X374237Y185181D01*
X374295Y185249D01*
X374357Y185314D01*
X374421Y185377D01*
X374488Y185437D01*
X374557Y185494D01*
X374629Y185548D01*
X374703Y185599D01*
X374779Y185647D01*
X374857Y185691D01*
X374937Y185732D01*
X375019Y185770D01*
X375102Y185804D01*
X375187Y185834D01*
X375273Y185861D01*
X375359Y185884D01*
X375447Y185903D01*
X375536Y185918D01*
X375625Y185930D01*
X375714Y185938D01*
X375804Y185942D01*
X375894Y185942D01*
X375984Y185938D01*
X376073Y185930D01*
X376162Y185918D01*
X376251Y185903D01*
X376339Y185884D01*
X376425Y185861D01*
X376511Y185834D01*
X376596Y185804D01*
X376679Y185770D01*
X376761Y185732D01*
X376841Y185691D01*
X376919Y185647D01*
X376995Y185599D01*
X377069Y185548D01*
X377141Y185494D01*
X377210Y185437D01*
X377277Y185377D01*
X377341Y185314D01*
X377403Y185249D01*
X377461Y185181D01*
X377517Y185110D01*
X377569Y185037D01*
X377619Y184962D01*
X377665Y184885D01*
X377707Y184806D01*
X377747Y184725D01*
X377782Y184643D01*
X377814Y184559D01*
X377843Y184474D01*
X377868Y184387D01*
X377889Y184300D01*
X377906Y184212D01*
X377920Y184123D01*
X377929Y184033D01*
X377935Y183944D01*
X377937Y183854D01*
X377938Y183854D02*
X377938Y181765D01*
X382637Y189471D02*
X383159Y189471D01*
X382637Y189471D02*
X382637Y189993D01*
X383159Y189993D01*
X383159Y189471D01*
X383159Y193523D02*
X383159Y196133D01*
X383157Y196234D01*
X383151Y196335D01*
X383141Y196436D01*
X383128Y196536D01*
X383110Y196636D01*
X383089Y196735D01*
X383063Y196833D01*
X383034Y196930D01*
X383002Y197026D01*
X382965Y197120D01*
X382925Y197213D01*
X382881Y197305D01*
X382834Y197394D01*
X382783Y197482D01*
X382729Y197568D01*
X382672Y197651D01*
X382612Y197733D01*
X382548Y197811D01*
X382482Y197888D01*
X382412Y197961D01*
X382340Y198032D01*
X382265Y198100D01*
X382187Y198165D01*
X382107Y198227D01*
X382025Y198286D01*
X381940Y198342D01*
X381854Y198394D01*
X381765Y198443D01*
X381674Y198489D01*
X381582Y198530D01*
X381488Y198569D01*
X381393Y198603D01*
X381297Y198634D01*
X381199Y198661D01*
X381101Y198685D01*
X381001Y198704D01*
X380901Y198720D01*
X380801Y198732D01*
X380700Y198740D01*
X380599Y198744D01*
X380497Y198744D01*
X380396Y198740D01*
X380295Y198732D01*
X380195Y198720D01*
X380095Y198704D01*
X379995Y198685D01*
X379897Y198661D01*
X379799Y198634D01*
X379703Y198603D01*
X379608Y198569D01*
X379514Y198530D01*
X379422Y198489D01*
X379331Y198443D01*
X379243Y198394D01*
X379156Y198342D01*
X379071Y198286D01*
X378989Y198227D01*
X378909Y198165D01*
X378831Y198100D01*
X378756Y198032D01*
X378684Y197961D01*
X378614Y197888D01*
X378548Y197811D01*
X378484Y197733D01*
X378424Y197651D01*
X378367Y197568D01*
X378313Y197482D01*
X378262Y197394D01*
X378215Y197305D01*
X378171Y197213D01*
X378131Y197120D01*
X378094Y197026D01*
X378062Y196930D01*
X378033Y196833D01*
X378007Y196735D01*
X377986Y196636D01*
X377968Y196536D01*
X377955Y196436D01*
X377945Y196335D01*
X377939Y196234D01*
X377937Y196133D01*
X373761Y196655D02*
X373761Y193523D01*
X373761Y196655D02*
X373763Y196745D01*
X373769Y196834D01*
X373778Y196924D01*
X373792Y197013D01*
X373809Y197101D01*
X373830Y197188D01*
X373855Y197275D01*
X373884Y197360D01*
X373916Y197444D01*
X373951Y197526D01*
X373991Y197607D01*
X374033Y197686D01*
X374079Y197763D01*
X374129Y197838D01*
X374181Y197911D01*
X374237Y197982D01*
X374295Y198050D01*
X374357Y198115D01*
X374421Y198178D01*
X374488Y198238D01*
X374557Y198295D01*
X374629Y198349D01*
X374703Y198400D01*
X374779Y198448D01*
X374857Y198492D01*
X374937Y198533D01*
X375019Y198571D01*
X375102Y198605D01*
X375187Y198635D01*
X375273Y198662D01*
X375359Y198685D01*
X375447Y198704D01*
X375536Y198719D01*
X375625Y198731D01*
X375714Y198739D01*
X375804Y198743D01*
X375894Y198743D01*
X375984Y198739D01*
X376073Y198731D01*
X376162Y198719D01*
X376251Y198704D01*
X376339Y198685D01*
X376425Y198662D01*
X376511Y198635D01*
X376596Y198605D01*
X376679Y198571D01*
X376761Y198533D01*
X376841Y198492D01*
X376919Y198448D01*
X376995Y198400D01*
X377069Y198349D01*
X377141Y198295D01*
X377210Y198238D01*
X377277Y198178D01*
X377341Y198115D01*
X377403Y198050D01*
X377461Y197982D01*
X377517Y197911D01*
X377569Y197838D01*
X377619Y197763D01*
X377665Y197686D01*
X377707Y197607D01*
X377747Y197526D01*
X377782Y197444D01*
X377814Y197360D01*
X377843Y197275D01*
X377868Y197188D01*
X377889Y197101D01*
X377906Y197013D01*
X377920Y196924D01*
X377929Y196834D01*
X377935Y196745D01*
X377937Y196655D01*
X377938Y196655D02*
X377938Y194567D01*
X373761Y202144D02*
X383159Y205277D01*
X373761Y208410D01*
X426198Y185942D02*
X426198Y184376D01*
X426198Y185942D02*
X431419Y185942D01*
X431419Y182809D01*
X431417Y182720D01*
X431411Y182632D01*
X431402Y182544D01*
X431389Y182456D01*
X431372Y182369D01*
X431352Y182283D01*
X431327Y182198D01*
X431300Y182113D01*
X431268Y182030D01*
X431234Y181949D01*
X431195Y181869D01*
X431154Y181791D01*
X431109Y181714D01*
X431061Y181640D01*
X431010Y181567D01*
X430956Y181497D01*
X430898Y181430D01*
X430838Y181364D01*
X430776Y181302D01*
X430710Y181242D01*
X430643Y181184D01*
X430573Y181130D01*
X430500Y181079D01*
X430426Y181031D01*
X430349Y180986D01*
X430271Y180945D01*
X430191Y180906D01*
X430110Y180872D01*
X430027Y180840D01*
X429942Y180813D01*
X429857Y180788D01*
X429771Y180768D01*
X429684Y180751D01*
X429596Y180738D01*
X429508Y180729D01*
X429420Y180723D01*
X429331Y180721D01*
X424109Y180721D01*
X424018Y180723D01*
X423927Y180729D01*
X423836Y180739D01*
X423746Y180753D01*
X423657Y180771D01*
X423568Y180792D01*
X423481Y180818D01*
X423395Y180847D01*
X423310Y180880D01*
X423226Y180917D01*
X423144Y180957D01*
X423065Y181001D01*
X422987Y181048D01*
X422911Y181099D01*
X422837Y181153D01*
X422766Y181210D01*
X422698Y181270D01*
X422632Y181333D01*
X422569Y181399D01*
X422509Y181467D01*
X422452Y181538D01*
X422398Y181612D01*
X422347Y181688D01*
X422300Y181765D01*
X422256Y181845D01*
X422216Y181927D01*
X422179Y182011D01*
X422146Y182095D01*
X422117Y182182D01*
X422091Y182269D01*
X422070Y182358D01*
X422052Y182447D01*
X422038Y182537D01*
X422028Y182628D01*
X422022Y182719D01*
X422020Y182810D01*
X422021Y182809D02*
X422021Y185942D01*
X422021Y190475D02*
X431419Y190475D01*
X431419Y195696D02*
X422021Y190475D01*
X422021Y195696D02*
X431419Y195696D01*
X431419Y200228D02*
X422021Y200228D01*
X422021Y202839D01*
X422023Y202939D01*
X422029Y203039D01*
X422038Y203138D01*
X422052Y203238D01*
X422069Y203336D01*
X422090Y203434D01*
X422114Y203531D01*
X422143Y203627D01*
X422175Y203722D01*
X422210Y203815D01*
X422249Y203907D01*
X422292Y203998D01*
X422338Y204086D01*
X422388Y204173D01*
X422440Y204258D01*
X422496Y204341D01*
X422555Y204422D01*
X422618Y204500D01*
X422683Y204576D01*
X422751Y204650D01*
X422821Y204720D01*
X422895Y204788D01*
X422971Y204853D01*
X423049Y204916D01*
X423130Y204975D01*
X423213Y205031D01*
X423298Y205083D01*
X423385Y205133D01*
X423473Y205179D01*
X423564Y205222D01*
X423656Y205261D01*
X423749Y205296D01*
X423844Y205328D01*
X423940Y205357D01*
X424037Y205381D01*
X424135Y205402D01*
X424233Y205419D01*
X424333Y205433D01*
X424432Y205442D01*
X424532Y205448D01*
X424632Y205450D01*
X424632Y205449D02*
X428808Y205449D01*
X428808Y205450D02*
X428908Y205448D01*
X429008Y205442D01*
X429107Y205433D01*
X429207Y205419D01*
X429305Y205402D01*
X429403Y205381D01*
X429500Y205357D01*
X429596Y205328D01*
X429691Y205296D01*
X429784Y205261D01*
X429876Y205222D01*
X429967Y205179D01*
X430055Y205133D01*
X430142Y205083D01*
X430227Y205031D01*
X430310Y204975D01*
X430391Y204916D01*
X430469Y204853D01*
X430545Y204788D01*
X430619Y204720D01*
X430689Y204650D01*
X430757Y204576D01*
X430822Y204500D01*
X430885Y204422D01*
X430944Y204341D01*
X431000Y204258D01*
X431052Y204173D01*
X431102Y204086D01*
X431148Y203998D01*
X431191Y203907D01*
X431230Y203815D01*
X431265Y203722D01*
X431297Y203627D01*
X431326Y203531D01*
X431350Y203434D01*
X431371Y203336D01*
X431388Y203238D01*
X431402Y203138D01*
X431411Y203039D01*
X431417Y202939D01*
X431419Y202839D01*
X431419Y200228D01*
D12*
X31750Y254000D02*
X31750Y339000D01*
X184150Y339000D01*
X184150Y254000D01*
X31750Y254000D01*
D13*
X98975Y314294D02*
X98975Y323382D01*
X98975Y314294D02*
X98973Y314195D01*
X98967Y314095D01*
X98958Y313996D01*
X98945Y313898D01*
X98928Y313800D01*
X98907Y313702D01*
X98882Y313606D01*
X98854Y313511D01*
X98822Y313417D01*
X98787Y313324D01*
X98748Y313232D01*
X98705Y313142D01*
X98660Y313054D01*
X98610Y312967D01*
X98558Y312883D01*
X98502Y312800D01*
X98444Y312720D01*
X98382Y312642D01*
X98317Y312567D01*
X98249Y312494D01*
X98179Y312424D01*
X98106Y312356D01*
X98031Y312291D01*
X97953Y312229D01*
X97873Y312171D01*
X97790Y312115D01*
X97706Y312063D01*
X97619Y312013D01*
X97531Y311968D01*
X97441Y311925D01*
X97349Y311886D01*
X97256Y311851D01*
X97162Y311819D01*
X97067Y311791D01*
X96971Y311766D01*
X96873Y311745D01*
X96775Y311728D01*
X96677Y311715D01*
X96578Y311706D01*
X96478Y311700D01*
X96379Y311698D01*
X95080Y311698D01*
X104249Y311698D02*
X107494Y311698D01*
X107607Y311700D01*
X107720Y311706D01*
X107833Y311716D01*
X107946Y311730D01*
X108058Y311747D01*
X108169Y311769D01*
X108279Y311794D01*
X108389Y311824D01*
X108497Y311857D01*
X108604Y311894D01*
X108710Y311934D01*
X108814Y311979D01*
X108917Y312027D01*
X109018Y312078D01*
X109117Y312133D01*
X109214Y312191D01*
X109309Y312253D01*
X109402Y312318D01*
X109492Y312386D01*
X109580Y312457D01*
X109666Y312532D01*
X109749Y312609D01*
X109829Y312689D01*
X109906Y312772D01*
X109981Y312858D01*
X110052Y312946D01*
X110120Y313036D01*
X110185Y313129D01*
X110247Y313224D01*
X110305Y313321D01*
X110360Y313420D01*
X110411Y313521D01*
X110459Y313624D01*
X110504Y313728D01*
X110544Y313834D01*
X110581Y313941D01*
X110614Y314049D01*
X110644Y314159D01*
X110669Y314269D01*
X110691Y314380D01*
X110708Y314492D01*
X110722Y314605D01*
X110732Y314718D01*
X110738Y314831D01*
X110740Y314944D01*
X110738Y315057D01*
X110732Y315170D01*
X110722Y315283D01*
X110708Y315396D01*
X110691Y315508D01*
X110669Y315619D01*
X110644Y315729D01*
X110614Y315839D01*
X110581Y315947D01*
X110544Y316054D01*
X110504Y316160D01*
X110459Y316264D01*
X110411Y316367D01*
X110360Y316468D01*
X110305Y316567D01*
X110247Y316664D01*
X110185Y316759D01*
X110120Y316852D01*
X110052Y316942D01*
X109981Y317030D01*
X109906Y317116D01*
X109829Y317199D01*
X109749Y317279D01*
X109666Y317356D01*
X109580Y317431D01*
X109492Y317502D01*
X109402Y317570D01*
X109309Y317635D01*
X109214Y317697D01*
X109117Y317755D01*
X109018Y317810D01*
X108917Y317861D01*
X108814Y317909D01*
X108710Y317954D01*
X108604Y317994D01*
X108497Y318031D01*
X108389Y318064D01*
X108279Y318094D01*
X108169Y318119D01*
X108058Y318141D01*
X107946Y318158D01*
X107833Y318172D01*
X107720Y318182D01*
X107607Y318188D01*
X107494Y318190D01*
X108143Y323382D02*
X104249Y323382D01*
X108143Y323382D02*
X108244Y323380D01*
X108344Y323374D01*
X108444Y323364D01*
X108544Y323351D01*
X108643Y323333D01*
X108742Y323312D01*
X108839Y323287D01*
X108936Y323258D01*
X109031Y323225D01*
X109125Y323189D01*
X109217Y323149D01*
X109308Y323106D01*
X109397Y323059D01*
X109484Y323009D01*
X109570Y322955D01*
X109653Y322898D01*
X109733Y322838D01*
X109812Y322775D01*
X109888Y322708D01*
X109961Y322639D01*
X110031Y322567D01*
X110099Y322493D01*
X110164Y322416D01*
X110225Y322336D01*
X110284Y322254D01*
X110339Y322170D01*
X110391Y322084D01*
X110440Y321996D01*
X110485Y321906D01*
X110527Y321814D01*
X110565Y321721D01*
X110599Y321626D01*
X110630Y321531D01*
X110657Y321434D01*
X110680Y321336D01*
X110700Y321237D01*
X110715Y321137D01*
X110727Y321037D01*
X110735Y320937D01*
X110739Y320836D01*
X110739Y320736D01*
X110735Y320635D01*
X110727Y320535D01*
X110715Y320435D01*
X110700Y320335D01*
X110680Y320236D01*
X110657Y320138D01*
X110630Y320041D01*
X110599Y319946D01*
X110565Y319851D01*
X110527Y319758D01*
X110485Y319666D01*
X110440Y319576D01*
X110391Y319488D01*
X110339Y319402D01*
X110284Y319318D01*
X110225Y319236D01*
X110164Y319156D01*
X110099Y319079D01*
X110031Y319005D01*
X109961Y318933D01*
X109888Y318864D01*
X109812Y318797D01*
X109733Y318734D01*
X109653Y318674D01*
X109570Y318617D01*
X109484Y318563D01*
X109397Y318513D01*
X109308Y318466D01*
X109217Y318423D01*
X109125Y318383D01*
X109031Y318347D01*
X108936Y318314D01*
X108839Y318285D01*
X108742Y318260D01*
X108643Y318239D01*
X108544Y318221D01*
X108444Y318208D01*
X108344Y318198D01*
X108244Y318192D01*
X108143Y318190D01*
X108143Y318189D02*
X105547Y318189D01*
D12*
X300990Y339000D02*
X300990Y254000D01*
X300990Y339000D02*
X453390Y339000D01*
X453390Y254000D01*
X300990Y254000D01*
D13*
X368215Y314294D02*
X368215Y323382D01*
X368215Y314294D02*
X368213Y314195D01*
X368207Y314095D01*
X368198Y313996D01*
X368185Y313898D01*
X368168Y313800D01*
X368147Y313702D01*
X368122Y313606D01*
X368094Y313511D01*
X368062Y313417D01*
X368027Y313324D01*
X367988Y313232D01*
X367945Y313142D01*
X367900Y313054D01*
X367850Y312967D01*
X367798Y312883D01*
X367742Y312800D01*
X367684Y312720D01*
X367622Y312642D01*
X367557Y312567D01*
X367489Y312494D01*
X367419Y312424D01*
X367346Y312356D01*
X367271Y312291D01*
X367193Y312229D01*
X367113Y312171D01*
X367030Y312115D01*
X366946Y312063D01*
X366859Y312013D01*
X366771Y311968D01*
X366681Y311925D01*
X366589Y311886D01*
X366496Y311851D01*
X366402Y311819D01*
X366307Y311791D01*
X366211Y311766D01*
X366113Y311745D01*
X366015Y311728D01*
X365917Y311715D01*
X365818Y311706D01*
X365718Y311700D01*
X365619Y311698D01*
X364320Y311698D01*
X373489Y311698D02*
X377383Y311698D01*
X377482Y311700D01*
X377582Y311706D01*
X377681Y311715D01*
X377779Y311728D01*
X377877Y311745D01*
X377975Y311766D01*
X378071Y311791D01*
X378166Y311819D01*
X378260Y311851D01*
X378353Y311886D01*
X378445Y311925D01*
X378535Y311968D01*
X378623Y312013D01*
X378710Y312063D01*
X378794Y312115D01*
X378877Y312171D01*
X378957Y312229D01*
X379035Y312291D01*
X379110Y312356D01*
X379183Y312424D01*
X379253Y312494D01*
X379321Y312567D01*
X379386Y312642D01*
X379448Y312720D01*
X379506Y312800D01*
X379562Y312883D01*
X379614Y312967D01*
X379664Y313054D01*
X379709Y313142D01*
X379752Y313232D01*
X379791Y313324D01*
X379826Y313417D01*
X379858Y313511D01*
X379886Y313606D01*
X379911Y313702D01*
X379932Y313800D01*
X379949Y313898D01*
X379962Y313996D01*
X379971Y314095D01*
X379977Y314195D01*
X379979Y314294D01*
X379980Y314294D02*
X379980Y315593D01*
X379979Y315593D02*
X379977Y315692D01*
X379971Y315792D01*
X379962Y315891D01*
X379949Y315989D01*
X379932Y316087D01*
X379911Y316185D01*
X379886Y316281D01*
X379858Y316376D01*
X379826Y316470D01*
X379791Y316563D01*
X379752Y316655D01*
X379709Y316745D01*
X379664Y316833D01*
X379614Y316920D01*
X379562Y317004D01*
X379506Y317087D01*
X379448Y317167D01*
X379386Y317245D01*
X379321Y317320D01*
X379253Y317393D01*
X379183Y317463D01*
X379110Y317531D01*
X379035Y317596D01*
X378957Y317658D01*
X378877Y317716D01*
X378794Y317772D01*
X378710Y317824D01*
X378623Y317874D01*
X378535Y317919D01*
X378445Y317962D01*
X378353Y318001D01*
X378260Y318036D01*
X378166Y318068D01*
X378071Y318096D01*
X377975Y318121D01*
X377877Y318142D01*
X377779Y318159D01*
X377681Y318172D01*
X377582Y318181D01*
X377482Y318187D01*
X377383Y318189D01*
X373489Y318189D01*
X373489Y323382D01*
X379980Y323382D01*
D14*
X285750Y63500D02*
X292100Y57150D01*
X273050Y63500D02*
X266700Y57150D01*
X260350Y63500D01*
X247650Y63500D02*
X241300Y57150D01*
X234950Y63500D01*
X222250Y63500D02*
X215900Y57150D01*
X209550Y63500D01*
X196850Y63500D02*
X190500Y57150D01*
X292100Y57150D02*
X292100Y19050D01*
X285750Y12700D01*
X273050Y12700D01*
X266700Y19050D01*
X260350Y12700D01*
X247650Y12700D01*
X241300Y19050D01*
X234950Y12700D01*
X222250Y12700D01*
X215900Y19050D01*
X209550Y12700D01*
X196850Y12700D01*
X190500Y19050D01*
X190500Y57150D01*
X196850Y63500D02*
X209550Y63500D01*
X222250Y63500D02*
X234950Y63500D01*
X247650Y63500D02*
X260350Y63500D01*
X273050Y63500D02*
X285750Y63500D01*
X285750Y66040D02*
X273050Y66040D01*
X285750Y63500D02*
X292100Y57150D01*
X292100Y19050D01*
X285750Y12700D01*
M02*
